<mxfile host="app.diagrams.net" modified="2024-04-16T21:01:19.903Z" agent="Mozilla/5.0 (X11; Linux x86_64; rv:124.0) Gecko/20100101 Firefox/124.0" etag="HIiBMCA2NzovfW_oryW4" version="24.2.3" type="device" pages="3">
  <diagram name="executeOne" id="Y_SnulTIV8Vp1h2V8p0R">
    <mxGraphModel dx="499" dy="799" grid="1" gridSize="10" guides="1" tooltips="1" connect="1" arrows="1" fold="1" page="1" pageScale="1" pageWidth="850" pageHeight="1100" math="0" shadow="0">
      <root>
        <mxCell id="0" />
        <mxCell id="1" parent="0" />
        <mxCell id="ks_McQJox8dQPnHU8Z5W-2" style="edgeStyle=orthogonalEdgeStyle;rounded=0;orthogonalLoop=1;jettySize=auto;html=1;fontSize=14;" edge="1" parent="1" source="ks_McQJox8dQPnHU8Z5W-1" target="ks_McQJox8dQPnHU8Z5W-3">
          <mxGeometry relative="1" as="geometry">
            <mxPoint x="250" y="470" as="targetPoint" />
          </mxGeometry>
        </mxCell>
        <mxCell id="ks_McQJox8dQPnHU8Z5W-1" value="begin" style="rounded=1;whiteSpace=wrap;html=1;arcSize=50;fontSize=14;" vertex="1" parent="1">
          <mxGeometry x="190" y="370" width="120" height="60" as="geometry" />
        </mxCell>
        <mxCell id="ks_McQJox8dQPnHU8Z5W-4" style="edgeStyle=orthogonalEdgeStyle;rounded=0;orthogonalLoop=1;jettySize=auto;html=1;fontSize=14;" edge="1" parent="1" source="ks_McQJox8dQPnHU8Z5W-3" target="ks_McQJox8dQPnHU8Z5W-5">
          <mxGeometry relative="1" as="geometry">
            <mxPoint x="250" y="520" as="targetPoint" />
          </mxGeometry>
        </mxCell>
        <mxCell id="ks_McQJox8dQPnHU8Z5W-3" value="&lt;div style=&quot;font-size: 14px;&quot;&gt;counter = 0;&lt;/div&gt;" style="rounded=0;whiteSpace=wrap;html=1;fontSize=14;" vertex="1" parent="1">
          <mxGeometry x="190" y="450" width="120" height="40" as="geometry" />
        </mxCell>
        <mxCell id="ks_McQJox8dQPnHU8Z5W-6" style="edgeStyle=orthogonalEdgeStyle;rounded=0;orthogonalLoop=1;jettySize=auto;html=1;entryX=0.5;entryY=0;entryDx=0;entryDy=0;fontSize=14;" edge="1" parent="1" source="ks_McQJox8dQPnHU8Z5W-5" target="ks_McQJox8dQPnHU8Z5W-8">
          <mxGeometry relative="1" as="geometry">
            <mxPoint x="250" y="590" as="targetPoint" />
          </mxGeometry>
        </mxCell>
        <mxCell id="ks_McQJox8dQPnHU8Z5W-5" value="arraySize = array.Length" style="rounded=0;whiteSpace=wrap;html=1;fontSize=14;" vertex="1" parent="1">
          <mxGeometry x="165" y="520" width="170" height="40" as="geometry" />
        </mxCell>
        <mxCell id="ks_McQJox8dQPnHU8Z5W-9" style="edgeStyle=orthogonalEdgeStyle;rounded=0;orthogonalLoop=1;jettySize=auto;html=1;fontSize=14;" edge="1" parent="1" source="ks_McQJox8dQPnHU8Z5W-8" target="ks_McQJox8dQPnHU8Z5W-10">
          <mxGeometry relative="1" as="geometry">
            <mxPoint x="250" y="660" as="targetPoint" />
          </mxGeometry>
        </mxCell>
        <mxCell id="ks_McQJox8dQPnHU8Z5W-19" style="edgeStyle=orthogonalEdgeStyle;rounded=0;orthogonalLoop=1;jettySize=auto;html=1;entryX=0.5;entryY=0;entryDx=0;entryDy=0;fontSize=14;" edge="1" parent="1" source="ks_McQJox8dQPnHU8Z5W-8" target="ks_McQJox8dQPnHU8Z5W-21">
          <mxGeometry relative="1" as="geometry">
            <mxPoint x="250" y="900" as="targetPoint" />
            <Array as="points">
              <mxPoint x="391" y="605" />
              <mxPoint x="391" y="860" />
              <mxPoint x="250" y="860" />
            </Array>
          </mxGeometry>
        </mxCell>
        <mxCell id="ks_McQJox8dQPnHU8Z5W-8" value="i = 0; i &amp;lt; arraySize; i++" style="shape=hexagon;perimeter=hexagonPerimeter2;whiteSpace=wrap;html=1;fixedSize=1;fontSize=14;" vertex="1" parent="1">
          <mxGeometry x="135" y="590" width="230" height="30" as="geometry" />
        </mxCell>
        <mxCell id="ks_McQJox8dQPnHU8Z5W-11" style="edgeStyle=orthogonalEdgeStyle;rounded=0;orthogonalLoop=1;jettySize=auto;html=1;entryX=0.5;entryY=0;entryDx=0;entryDy=0;fontSize=14;" edge="1" parent="1" source="ks_McQJox8dQPnHU8Z5W-10" target="ks_McQJox8dQPnHU8Z5W-13">
          <mxGeometry relative="1" as="geometry">
            <mxPoint x="250" y="770" as="targetPoint" />
          </mxGeometry>
        </mxCell>
        <mxCell id="ks_McQJox8dQPnHU8Z5W-15" style="edgeStyle=orthogonalEdgeStyle;rounded=0;orthogonalLoop=1;jettySize=auto;html=1;fontSize=14;" edge="1" parent="1" source="ks_McQJox8dQPnHU8Z5W-10">
          <mxGeometry relative="1" as="geometry">
            <mxPoint x="250" y="820" as="targetPoint" />
            <Array as="points">
              <mxPoint x="361" y="690" />
              <mxPoint x="361" y="820" />
              <mxPoint x="270" y="820" />
            </Array>
          </mxGeometry>
        </mxCell>
        <mxCell id="ks_McQJox8dQPnHU8Z5W-10" value="arra[i] % 2 == 0" style="rhombus;whiteSpace=wrap;html=1;fontSize=14;" vertex="1" parent="1">
          <mxGeometry x="160" y="650" width="180" height="80" as="geometry" />
        </mxCell>
        <mxCell id="ks_McQJox8dQPnHU8Z5W-13" value="counter++" style="rounded=0;whiteSpace=wrap;html=1;fontSize=14;" vertex="1" parent="1">
          <mxGeometry x="190" y="770" width="120" height="30" as="geometry" />
        </mxCell>
        <mxCell id="ks_McQJox8dQPnHU8Z5W-14" value="" style="endArrow=none;html=1;rounded=0;exitX=0.5;exitY=1;exitDx=0;exitDy=0;entryX=0;entryY=0.5;entryDx=0;entryDy=0;fontSize=14;" edge="1" parent="1" source="ks_McQJox8dQPnHU8Z5W-13" target="ks_McQJox8dQPnHU8Z5W-8">
          <mxGeometry width="50" height="50" relative="1" as="geometry">
            <mxPoint x="230" y="790" as="sourcePoint" />
            <mxPoint x="280" y="740" as="targetPoint" />
            <Array as="points">
              <mxPoint x="250" y="840" />
              <mxPoint x="120" y="840" />
              <mxPoint x="120" y="605" />
            </Array>
          </mxGeometry>
        </mxCell>
        <mxCell id="ks_McQJox8dQPnHU8Z5W-16" value="0" style="text;html=1;align=center;verticalAlign=middle;resizable=0;points=[];autosize=1;strokeColor=none;fillColor=none;fontSize=14;" vertex="1" parent="1">
          <mxGeometry x="340" y="670" width="30" height="30" as="geometry" />
        </mxCell>
        <mxCell id="ks_McQJox8dQPnHU8Z5W-18" value="1" style="text;html=1;align=center;verticalAlign=middle;resizable=0;points=[];autosize=1;strokeColor=none;fillColor=none;fontSize=14;" vertex="1" parent="1">
          <mxGeometry x="250" y="730" width="30" height="30" as="geometry" />
        </mxCell>
        <mxCell id="ks_McQJox8dQPnHU8Z5W-30" style="edgeStyle=orthogonalEdgeStyle;rounded=0;orthogonalLoop=1;jettySize=auto;html=1;fontSize=14;" edge="1" parent="1" source="ks_McQJox8dQPnHU8Z5W-21" target="ks_McQJox8dQPnHU8Z5W-31">
          <mxGeometry relative="1" as="geometry">
            <mxPoint x="250" y="940" as="targetPoint" />
          </mxGeometry>
        </mxCell>
        <mxCell id="ks_McQJox8dQPnHU8Z5W-21" value="solution(counter + arraySize)" style="rounded=0;whiteSpace=wrap;html=1;fontSize=14;" vertex="1" parent="1">
          <mxGeometry x="170" y="890" width="160" height="30" as="geometry" />
        </mxCell>
        <mxCell id="ks_McQJox8dQPnHU8Z5W-24" style="edgeStyle=orthogonalEdgeStyle;rounded=0;orthogonalLoop=1;jettySize=auto;html=1;fontSize=14;" edge="1" parent="1" source="ks_McQJox8dQPnHU8Z5W-22" target="ks_McQJox8dQPnHU8Z5W-25">
          <mxGeometry relative="1" as="geometry">
            <mxPoint x="245" y="1160" as="targetPoint" />
          </mxGeometry>
        </mxCell>
        <mxCell id="ks_McQJox8dQPnHU8Z5W-36" style="edgeStyle=orthogonalEdgeStyle;rounded=0;orthogonalLoop=1;jettySize=auto;html=1;fontSize=14;" edge="1" parent="1" source="ks_McQJox8dQPnHU8Z5W-22">
          <mxGeometry relative="1" as="geometry">
            <mxPoint x="250" y="1260" as="targetPoint" />
            <Array as="points">
              <mxPoint x="381" y="1100" />
              <mxPoint x="381" y="1260" />
              <mxPoint x="260" y="1260" />
            </Array>
          </mxGeometry>
        </mxCell>
        <mxCell id="ks_McQJox8dQPnHU8Z5W-22" value="array[i]&amp;nbsp; % 2 == 0" style="rhombus;whiteSpace=wrap;html=1;fontSize=14;" vertex="1" parent="1">
          <mxGeometry x="160" y="1060" width="180" height="80" as="geometry" />
        </mxCell>
        <mxCell id="ks_McQJox8dQPnHU8Z5W-26" style="edgeStyle=orthogonalEdgeStyle;rounded=0;orthogonalLoop=1;jettySize=auto;html=1;fontSize=14;" edge="1" parent="1" source="ks_McQJox8dQPnHU8Z5W-25" target="ks_McQJox8dQPnHU8Z5W-27">
          <mxGeometry relative="1" as="geometry">
            <mxPoint x="245" y="1200" as="targetPoint" />
          </mxGeometry>
        </mxCell>
        <mxCell id="ks_McQJox8dQPnHU8Z5W-25" value="j++;" style="rounded=0;whiteSpace=wrap;html=1;fontSize=14;" vertex="1" parent="1">
          <mxGeometry x="215" y="1160" width="70" height="20" as="geometry" />
        </mxCell>
        <mxCell id="ks_McQJox8dQPnHU8Z5W-27" value="solution[j] = 0;" style="rounded=0;whiteSpace=wrap;html=1;fontSize=14;" vertex="1" parent="1">
          <mxGeometry x="195" y="1200" width="110" height="30" as="geometry" />
        </mxCell>
        <mxCell id="ks_McQJox8dQPnHU8Z5W-32" style="edgeStyle=orthogonalEdgeStyle;rounded=0;orthogonalLoop=1;jettySize=auto;html=1;fontSize=14;" edge="1" parent="1" source="ks_McQJox8dQPnHU8Z5W-31" target="ks_McQJox8dQPnHU8Z5W-33">
          <mxGeometry relative="1" as="geometry">
            <mxPoint x="250" y="1010.0000000000002" as="targetPoint" />
          </mxGeometry>
        </mxCell>
        <mxCell id="ks_McQJox8dQPnHU8Z5W-39" style="edgeStyle=orthogonalEdgeStyle;rounded=0;orthogonalLoop=1;jettySize=auto;html=1;entryX=0.5;entryY=0;entryDx=0;entryDy=0;fontSize=14;" edge="1" parent="1" source="ks_McQJox8dQPnHU8Z5W-31" target="ks_McQJox8dQPnHU8Z5W-40">
          <mxGeometry relative="1" as="geometry">
            <mxPoint x="250" y="1360" as="targetPoint" />
            <Array as="points">
              <mxPoint x="431" y="965" />
              <mxPoint x="431" y="1310" />
              <mxPoint x="250" y="1310" />
              <mxPoint x="250" y="1370" />
            </Array>
          </mxGeometry>
        </mxCell>
        <mxCell id="ks_McQJox8dQPnHU8Z5W-31" value="i = 0, j = 0; i &amp;lt; arraySize; i++, j++" style="shape=hexagon;perimeter=hexagonPerimeter2;whiteSpace=wrap;html=1;fixedSize=1;fontSize=14;" vertex="1" parent="1">
          <mxGeometry x="95" y="950" width="310" height="30" as="geometry" />
        </mxCell>
        <mxCell id="ks_McQJox8dQPnHU8Z5W-34" style="edgeStyle=orthogonalEdgeStyle;rounded=0;orthogonalLoop=1;jettySize=auto;html=1;entryX=0.5;entryY=0;entryDx=0;entryDy=0;fontSize=14;" edge="1" parent="1" source="ks_McQJox8dQPnHU8Z5W-33" target="ks_McQJox8dQPnHU8Z5W-22">
          <mxGeometry relative="1" as="geometry" />
        </mxCell>
        <mxCell id="ks_McQJox8dQPnHU8Z5W-33" value="solution[j] = array[i]" style="rounded=0;whiteSpace=wrap;html=1;fontSize=14;" vertex="1" parent="1">
          <mxGeometry x="160" y="1010" width="180" height="30" as="geometry" />
        </mxCell>
        <mxCell id="ks_McQJox8dQPnHU8Z5W-35" value="" style="endArrow=none;html=1;rounded=0;exitX=0.5;exitY=1;exitDx=0;exitDy=0;entryX=0;entryY=0.5;entryDx=0;entryDy=0;fontSize=14;" edge="1" parent="1" source="ks_McQJox8dQPnHU8Z5W-27" target="ks_McQJox8dQPnHU8Z5W-31">
          <mxGeometry width="50" height="50" relative="1" as="geometry">
            <mxPoint x="260" y="1140" as="sourcePoint" />
            <mxPoint x="310" y="1090" as="targetPoint" />
            <Array as="points">
              <mxPoint x="250" y="1280" />
              <mxPoint x="40" y="1280" />
              <mxPoint x="40" y="965" />
            </Array>
          </mxGeometry>
        </mxCell>
        <mxCell id="ks_McQJox8dQPnHU8Z5W-37" value="0" style="text;html=1;align=center;verticalAlign=middle;resizable=0;points=[];autosize=1;strokeColor=none;fillColor=none;fontSize=14;" vertex="1" parent="1">
          <mxGeometry x="340" y="1070" width="30" height="30" as="geometry" />
        </mxCell>
        <mxCell id="ks_McQJox8dQPnHU8Z5W-38" value="1" style="text;html=1;align=center;verticalAlign=middle;resizable=0;points=[];autosize=1;strokeColor=none;fillColor=none;fontSize=14;" vertex="1" parent="1">
          <mxGeometry x="255" y="1130" width="30" height="30" as="geometry" />
        </mxCell>
        <mxCell id="ks_McQJox8dQPnHU8Z5W-40" value="end" style="rounded=1;whiteSpace=wrap;html=1;arcSize=50;fontSize=14;" vertex="1" parent="1">
          <mxGeometry x="190" y="1370" width="120" height="60" as="geometry" />
        </mxCell>
      </root>
    </mxGraphModel>
  </diagram>
  <diagram id="wH7saZyAX8wj6WnGRJvb" name="executeThree">
    <mxGraphModel dx="677" dy="1084" grid="1" gridSize="10" guides="1" tooltips="1" connect="1" arrows="1" fold="1" page="1" pageScale="1" pageWidth="850" pageHeight="1100" math="0" shadow="0">
      <root>
        <mxCell id="0" />
        <mxCell id="1" parent="0" />
        <mxCell id="8mMHArzGf9-Olkof61T6-1" style="edgeStyle=orthogonalEdgeStyle;rounded=0;orthogonalLoop=1;jettySize=auto;html=1;fontSize=14;" edge="1" parent="1" source="bc-LkU_YS6x3EeChohDE-1" target="8mMHArzGf9-Olkof61T6-2">
          <mxGeometry relative="1" as="geometry">
            <mxPoint x="240" y="170" as="targetPoint" />
          </mxGeometry>
        </mxCell>
        <mxCell id="bc-LkU_YS6x3EeChohDE-1" value="begin" style="rounded=1;whiteSpace=wrap;html=1;arcSize=50;fontSize=14;" vertex="1" parent="1">
          <mxGeometry x="180" y="80" width="120" height="60" as="geometry" />
        </mxCell>
        <mxCell id="8mMHArzGf9-Olkof61T6-3" style="edgeStyle=orthogonalEdgeStyle;rounded=0;orthogonalLoop=1;jettySize=auto;html=1;fontSize=14;" edge="1" parent="1" source="8mMHArzGf9-Olkof61T6-2" target="8mMHArzGf9-Olkof61T6-4">
          <mxGeometry relative="1" as="geometry">
            <mxPoint x="240" y="220" as="targetPoint" />
          </mxGeometry>
        </mxCell>
        <mxCell id="8mMHArzGf9-Olkof61T6-2" value="firstRow = matrix[0]" style="rounded=0;whiteSpace=wrap;html=1;fontSize=14;" vertex="1" parent="1">
          <mxGeometry x="165" y="160" width="150" height="40" as="geometry" />
        </mxCell>
        <mxCell id="8mMHArzGf9-Olkof61T6-8" style="edgeStyle=orthogonalEdgeStyle;rounded=0;orthogonalLoop=1;jettySize=auto;html=1;entryX=0.5;entryY=0;entryDx=0;entryDy=0;fontSize=14;" edge="1" parent="1" source="8mMHArzGf9-Olkof61T6-4" target="8mMHArzGf9-Olkof61T6-5">
          <mxGeometry relative="1" as="geometry" />
        </mxCell>
        <mxCell id="8mMHArzGf9-Olkof61T6-4" value="len = firstRow.Length" style="rounded=0;whiteSpace=wrap;html=1;fontSize=14;" vertex="1" parent="1">
          <mxGeometry x="162.5" y="220" width="155" height="40" as="geometry" />
        </mxCell>
        <mxCell id="8mMHArzGf9-Olkof61T6-9" style="edgeStyle=orthogonalEdgeStyle;rounded=0;orthogonalLoop=1;jettySize=auto;html=1;entryX=0.5;entryY=0;entryDx=0;entryDy=0;fontSize=14;" edge="1" parent="1" source="8mMHArzGf9-Olkof61T6-5" target="8mMHArzGf9-Olkof61T6-6">
          <mxGeometry relative="1" as="geometry" />
        </mxCell>
        <mxCell id="8mMHArzGf9-Olkof61T6-5" value="splitLen = len /2" style="rounded=0;whiteSpace=wrap;html=1;fontSize=14;" vertex="1" parent="1">
          <mxGeometry x="162.5" y="290" width="155" height="40" as="geometry" />
        </mxCell>
        <mxCell id="8mMHArzGf9-Olkof61T6-10" style="edgeStyle=orthogonalEdgeStyle;rounded=0;orthogonalLoop=1;jettySize=auto;html=1;entryX=0.5;entryY=0;entryDx=0;entryDy=0;fontSize=14;" edge="1" parent="1" source="8mMHArzGf9-Olkof61T6-6" target="8mMHArzGf9-Olkof61T6-7">
          <mxGeometry relative="1" as="geometry" />
        </mxCell>
        <mxCell id="8mMHArzGf9-Olkof61T6-6" value="firstHalf = new int[splitLen]" style="rounded=0;whiteSpace=wrap;html=1;fontSize=14;" vertex="1" parent="1">
          <mxGeometry x="145" y="360" width="190" height="40" as="geometry" />
        </mxCell>
        <mxCell id="8mMHArzGf9-Olkof61T6-13" style="edgeStyle=orthogonalEdgeStyle;rounded=0;orthogonalLoop=1;jettySize=auto;html=1;entryX=0.5;entryY=0;entryDx=0;entryDy=0;fontSize=14;" edge="1" parent="1" source="8mMHArzGf9-Olkof61T6-7" target="8mMHArzGf9-Olkof61T6-11">
          <mxGeometry relative="1" as="geometry" />
        </mxCell>
        <mxCell id="8mMHArzGf9-Olkof61T6-7" value="secondHalf = new int[len - splitLen]" style="rounded=0;whiteSpace=wrap;html=1;fontSize=14;" vertex="1" parent="1">
          <mxGeometry x="117.5" y="430" width="245" height="40" as="geometry" />
        </mxCell>
        <mxCell id="8mMHArzGf9-Olkof61T6-14" style="edgeStyle=orthogonalEdgeStyle;rounded=0;orthogonalLoop=1;jettySize=auto;html=1;fontSize=14;" edge="1" parent="1" source="8mMHArzGf9-Olkof61T6-11" target="8mMHArzGf9-Olkof61T6-15">
          <mxGeometry relative="1" as="geometry">
            <mxPoint x="240" y="600" as="targetPoint" />
          </mxGeometry>
        </mxCell>
        <mxCell id="8mMHArzGf9-Olkof61T6-20" style="edgeStyle=orthogonalEdgeStyle;rounded=0;orthogonalLoop=1;jettySize=auto;html=1;fontSize=14;" edge="1" parent="1" source="8mMHArzGf9-Olkof61T6-11">
          <mxGeometry relative="1" as="geometry">
            <mxPoint x="240" y="760" as="targetPoint" />
            <Array as="points">
              <mxPoint x="431" y="540" />
            </Array>
          </mxGeometry>
        </mxCell>
        <mxCell id="8mMHArzGf9-Olkof61T6-11" value="len &amp;gt; 10" style="rhombus;whiteSpace=wrap;html=1;fontSize=14;" vertex="1" parent="1">
          <mxGeometry x="140" y="500" width="200" height="80" as="geometry" />
        </mxCell>
        <mxCell id="8mMHArzGf9-Olkof61T6-17" style="edgeStyle=orthogonalEdgeStyle;rounded=0;orthogonalLoop=1;jettySize=auto;html=1;fontSize=14;" edge="1" parent="1" source="8mMHArzGf9-Olkof61T6-15" target="8mMHArzGf9-Olkof61T6-16">
          <mxGeometry relative="1" as="geometry" />
        </mxCell>
        <mxCell id="8mMHArzGf9-Olkof61T6-15" value="Array.Copy(firstRow, 0, firstHalf, 0, splitLen)" style="rounded=0;whiteSpace=wrap;html=1;fontSize=14;" vertex="1" parent="1">
          <mxGeometry x="88.75" y="610" width="302.5" height="50" as="geometry" />
        </mxCell>
        <mxCell id="8mMHArzGf9-Olkof61T6-19" style="edgeStyle=orthogonalEdgeStyle;rounded=0;orthogonalLoop=1;jettySize=auto;html=1;fontSize=14;" edge="1" parent="1" source="8mMHArzGf9-Olkof61T6-16" target="8mMHArzGf9-Olkof61T6-22">
          <mxGeometry relative="1" as="geometry">
            <mxPoint x="240" y="800" as="targetPoint" />
          </mxGeometry>
        </mxCell>
        <mxCell id="8mMHArzGf9-Olkof61T6-16" value="Array.Copy(firstRow, 0, firstHalf, 0, splitLen)" style="rounded=0;whiteSpace=wrap;html=1;fontSize=14;" vertex="1" parent="1">
          <mxGeometry x="88.75" y="680" width="302.5" height="50" as="geometry" />
        </mxCell>
        <mxCell id="8mMHArzGf9-Olkof61T6-18" value="&lt;div style=&quot;font-size: 14px;&quot;&gt;1&lt;/div&gt;" style="text;html=1;align=center;verticalAlign=middle;resizable=0;points=[];autosize=1;strokeColor=none;fillColor=none;fontSize=14;" vertex="1" parent="1">
          <mxGeometry x="240" y="580" width="30" height="30" as="geometry" />
        </mxCell>
        <mxCell id="8mMHArzGf9-Olkof61T6-21" value="&lt;div style=&quot;font-size: 14px;&quot;&gt;0&lt;/div&gt;" style="text;html=1;align=center;verticalAlign=middle;resizable=0;points=[];autosize=1;strokeColor=none;fillColor=none;fontSize=14;" vertex="1" parent="1">
          <mxGeometry x="335" y="508" width="30" height="30" as="geometry" />
        </mxCell>
        <mxCell id="8mMHArzGf9-Olkof61T6-23" style="edgeStyle=orthogonalEdgeStyle;rounded=0;orthogonalLoop=1;jettySize=auto;html=1;fontSize=14;" edge="1" parent="1" source="8mMHArzGf9-Olkof61T6-22" target="8mMHArzGf9-Olkof61T6-24">
          <mxGeometry relative="1" as="geometry">
            <mxPoint x="240" y="860" as="targetPoint" />
          </mxGeometry>
        </mxCell>
        <mxCell id="8mMHArzGf9-Olkof61T6-26" style="edgeStyle=orthogonalEdgeStyle;rounded=0;orthogonalLoop=1;jettySize=auto;html=1;entryX=0.5;entryY=0;entryDx=0;entryDy=0;fontSize=14;" edge="1" parent="1" source="8mMHArzGf9-Olkof61T6-22" target="8mMHArzGf9-Olkof61T6-28">
          <mxGeometry relative="1" as="geometry">
            <mxPoint x="240" y="1020" as="targetPoint" />
            <Array as="points">
              <mxPoint x="421" y="805" />
              <mxPoint x="421" y="980" />
              <mxPoint x="240" y="980" />
              <mxPoint x="240" y="1020" />
            </Array>
          </mxGeometry>
        </mxCell>
        <mxCell id="8mMHArzGf9-Olkof61T6-22" value="i = matrix.Length - 1; i &amp;gt; 0; i--" style="shape=hexagon;perimeter=hexagonPerimeter2;whiteSpace=wrap;html=1;fixedSize=1;fontSize=14;" vertex="1" parent="1">
          <mxGeometry x="85" y="780" width="310" height="50" as="geometry" />
        </mxCell>
        <mxCell id="8mMHArzGf9-Olkof61T6-24" value="matrix[0] = firstHalf" style="rounded=0;whiteSpace=wrap;html=1;fontSize=14;" vertex="1" parent="1">
          <mxGeometry x="150" y="860" width="180" height="50" as="geometry" />
        </mxCell>
        <mxCell id="8mMHArzGf9-Olkof61T6-25" value="" style="endArrow=none;html=1;rounded=0;exitX=0.5;exitY=1;exitDx=0;exitDy=0;entryX=0;entryY=0.5;entryDx=0;entryDy=0;fontSize=14;" edge="1" parent="1" source="8mMHArzGf9-Olkof61T6-24" target="8mMHArzGf9-Olkof61T6-22">
          <mxGeometry width="50" height="50" relative="1" as="geometry">
            <mxPoint x="250" y="860" as="sourcePoint" />
            <mxPoint x="300" y="810" as="targetPoint" />
            <Array as="points">
              <mxPoint x="240" y="950" />
              <mxPoint x="40" y="950" />
              <mxPoint x="40" y="880" />
              <mxPoint x="40" y="805" />
            </Array>
          </mxGeometry>
        </mxCell>
        <mxCell id="8mMHArzGf9-Olkof61T6-33" style="edgeStyle=orthogonalEdgeStyle;rounded=0;orthogonalLoop=1;jettySize=auto;html=1;entryX=0.5;entryY=0;entryDx=0;entryDy=0;fontSize=14;" edge="1" parent="1" source="8mMHArzGf9-Olkof61T6-28" target="8mMHArzGf9-Olkof61T6-30">
          <mxGeometry relative="1" as="geometry" />
        </mxCell>
        <mxCell id="8mMHArzGf9-Olkof61T6-28" value="Array.Resize(ref, matrix, matrix.Length)" style="rounded=0;whiteSpace=wrap;html=1;fontSize=14;" vertex="1" parent="1">
          <mxGeometry x="115" y="1030" width="250" height="50" as="geometry" />
        </mxCell>
        <mxCell id="8mMHArzGf9-Olkof61T6-29" style="edgeStyle=orthogonalEdgeStyle;rounded=0;orthogonalLoop=1;jettySize=auto;html=1;fontSize=14;" edge="1" parent="1" source="8mMHArzGf9-Olkof61T6-30" target="8mMHArzGf9-Olkof61T6-31">
          <mxGeometry relative="1" as="geometry">
            <mxPoint x="240" y="1200" as="targetPoint" />
          </mxGeometry>
        </mxCell>
        <mxCell id="8mMHArzGf9-Olkof61T6-34" style="edgeStyle=orthogonalEdgeStyle;rounded=0;orthogonalLoop=1;jettySize=auto;html=1;entryX=0.5;entryY=0;entryDx=0;entryDy=0;fontSize=14;" edge="1" parent="1" source="8mMHArzGf9-Olkof61T6-30" target="8mMHArzGf9-Olkof61T6-35">
          <mxGeometry relative="1" as="geometry">
            <mxPoint x="240" y="1350" as="targetPoint" />
            <Array as="points">
              <mxPoint x="420" y="1145" />
              <mxPoint x="420" y="1310" />
              <mxPoint x="240" y="1310" />
            </Array>
          </mxGeometry>
        </mxCell>
        <mxCell id="8mMHArzGf9-Olkof61T6-30" value="i = matrix.Length - 1; i &amp;gt; 0; i--" style="shape=hexagon;perimeter=hexagonPerimeter2;whiteSpace=wrap;html=1;fixedSize=1;fontSize=14;" vertex="1" parent="1">
          <mxGeometry x="85" y="1120" width="310" height="50" as="geometry" />
        </mxCell>
        <mxCell id="8mMHArzGf9-Olkof61T6-31" value="matrix[i] = matrix[i-1];" style="rounded=0;whiteSpace=wrap;html=1;fontSize=14;" vertex="1" parent="1">
          <mxGeometry x="150" y="1200" width="180" height="50" as="geometry" />
        </mxCell>
        <mxCell id="8mMHArzGf9-Olkof61T6-32" value="" style="endArrow=none;html=1;rounded=0;exitX=0.5;exitY=1;exitDx=0;exitDy=0;entryX=0;entryY=0.5;entryDx=0;entryDy=0;fontSize=14;" edge="1" parent="1" source="8mMHArzGf9-Olkof61T6-31" target="8mMHArzGf9-Olkof61T6-30">
          <mxGeometry width="50" height="50" relative="1" as="geometry">
            <mxPoint x="250" y="1200" as="sourcePoint" />
            <mxPoint x="300" y="1150" as="targetPoint" />
            <Array as="points">
              <mxPoint x="240" y="1290" />
              <mxPoint x="40" y="1290" />
              <mxPoint x="40" y="1220" />
              <mxPoint x="40" y="1145" />
            </Array>
          </mxGeometry>
        </mxCell>
        <mxCell id="8mMHArzGf9-Olkof61T6-36" style="edgeStyle=orthogonalEdgeStyle;rounded=0;orthogonalLoop=1;jettySize=auto;html=1;fontSize=14;" edge="1" parent="1" source="8mMHArzGf9-Olkof61T6-35" target="8mMHArzGf9-Olkof61T6-37">
          <mxGeometry relative="1" as="geometry">
            <mxPoint x="240" y="1430" as="targetPoint" />
          </mxGeometry>
        </mxCell>
        <mxCell id="8mMHArzGf9-Olkof61T6-35" value="matrix[1] = secondHalf;" style="rounded=0;whiteSpace=wrap;html=1;fontSize=14;" vertex="1" parent="1">
          <mxGeometry x="140" y="1360" width="200" height="40" as="geometry" />
        </mxCell>
        <mxCell id="8mMHArzGf9-Olkof61T6-38" style="edgeStyle=orthogonalEdgeStyle;rounded=0;orthogonalLoop=1;jettySize=auto;html=1;fontSize=14;" edge="1" parent="1" source="8mMHArzGf9-Olkof61T6-37" target="8mMHArzGf9-Olkof61T6-39">
          <mxGeometry relative="1" as="geometry">
            <mxPoint x="240" y="1490" as="targetPoint" />
          </mxGeometry>
        </mxCell>
        <mxCell id="8mMHArzGf9-Olkof61T6-37" value="return matrix" style="rounded=0;whiteSpace=wrap;html=1;fontSize=14;" vertex="1" parent="1">
          <mxGeometry x="180" y="1430" width="120" height="30" as="geometry" />
        </mxCell>
        <mxCell id="8mMHArzGf9-Olkof61T6-39" value="end" style="rounded=1;whiteSpace=wrap;html=1;arcSize=50;fontSize=14;" vertex="1" parent="1">
          <mxGeometry x="180" y="1480" width="120" height="60" as="geometry" />
        </mxCell>
      </root>
    </mxGraphModel>
  </diagram>
  <diagram id="4LrrVvzWiJE3mgRroEYF" name="executeFour">
    <mxGraphModel dx="1903" dy="1687" grid="1" gridSize="10" guides="1" tooltips="1" connect="1" arrows="1" fold="1" page="1" pageScale="1" pageWidth="850" pageHeight="1100" math="0" shadow="0">
      <root>
        <mxCell id="0" />
        <mxCell id="1" parent="0" />
        <mxCell id="DQxKLJ-CM0DmWN-XMftg-2" style="edgeStyle=orthogonalEdgeStyle;rounded=0;orthogonalLoop=1;jettySize=auto;html=1;fontSize=14;" edge="1" parent="1" source="DQxKLJ-CM0DmWN-XMftg-1" target="DQxKLJ-CM0DmWN-XMftg-3">
          <mxGeometry relative="1" as="geometry">
            <mxPoint x="240" y="140" as="targetPoint" />
          </mxGeometry>
        </mxCell>
        <mxCell id="DQxKLJ-CM0DmWN-XMftg-1" value="begin" style="rounded=1;whiteSpace=wrap;html=1;arcSize=50;fontSize=14;" vertex="1" parent="1">
          <mxGeometry x="180" y="50" width="120" height="60" as="geometry" />
        </mxCell>
        <mxCell id="DQxKLJ-CM0DmWN-XMftg-5" style="edgeStyle=orthogonalEdgeStyle;rounded=0;orthogonalLoop=1;jettySize=auto;html=1;entryX=0.5;entryY=0;entryDx=0;entryDy=0;fontSize=14;" edge="1" parent="1" source="DQxKLJ-CM0DmWN-XMftg-3" target="DQxKLJ-CM0DmWN-XMftg-4">
          <mxGeometry relative="1" as="geometry" />
        </mxCell>
        <mxCell id="DQxKLJ-CM0DmWN-XMftg-3" value="cols = array.Length" style="rounded=0;whiteSpace=wrap;html=1;fontSize=14;" vertex="1" parent="1">
          <mxGeometry x="170" y="140" width="140" height="40" as="geometry" />
        </mxCell>
        <mxCell id="DQxKLJ-CM0DmWN-XMftg-6" style="edgeStyle=orthogonalEdgeStyle;rounded=0;orthogonalLoop=1;jettySize=auto;html=1;fontSize=14;" edge="1" parent="1" source="DQxKLJ-CM0DmWN-XMftg-4" target="DQxKLJ-CM0DmWN-XMftg-7">
          <mxGeometry relative="1" as="geometry">
            <mxPoint x="240" y="270" as="targetPoint" />
          </mxGeometry>
        </mxCell>
        <mxCell id="DQxKLJ-CM0DmWN-XMftg-4" value="rows = array2.Length" style="rounded=0;whiteSpace=wrap;html=1;fontSize=14;" vertex="1" parent="1">
          <mxGeometry x="170" y="200" width="140" height="40" as="geometry" />
        </mxCell>
        <mxCell id="DQxKLJ-CM0DmWN-XMftg-8" style="edgeStyle=orthogonalEdgeStyle;rounded=0;orthogonalLoop=1;jettySize=auto;html=1;fontSize=14;" edge="1" parent="1" source="DQxKLJ-CM0DmWN-XMftg-7" target="DQxKLJ-CM0DmWN-XMftg-9">
          <mxGeometry relative="1" as="geometry">
            <mxPoint x="240" y="340" as="targetPoint" />
          </mxGeometry>
        </mxCell>
        <mxCell id="DQxKLJ-CM0DmWN-XMftg-7" value="solution = new int[cols][]" style="rounded=0;whiteSpace=wrap;html=1;fontSize=14;" vertex="1" parent="1">
          <mxGeometry x="160" y="270" width="160" height="40" as="geometry" />
        </mxCell>
        <mxCell id="DQxKLJ-CM0DmWN-XMftg-10" style="edgeStyle=orthogonalEdgeStyle;rounded=0;orthogonalLoop=1;jettySize=auto;html=1;fontSize=14;" edge="1" parent="1" source="DQxKLJ-CM0DmWN-XMftg-9" target="DQxKLJ-CM0DmWN-XMftg-11">
          <mxGeometry relative="1" as="geometry">
            <mxPoint x="240" y="410" as="targetPoint" />
          </mxGeometry>
        </mxCell>
        <mxCell id="8xSQEIMOcmvB-MgzGwHs-2" style="edgeStyle=orthogonalEdgeStyle;rounded=0;orthogonalLoop=1;jettySize=auto;html=1;entryX=0.5;entryY=0;entryDx=0;entryDy=0;fontSize=14;" edge="1" parent="1" source="DQxKLJ-CM0DmWN-XMftg-9" target="8xSQEIMOcmvB-MgzGwHs-3">
          <mxGeometry relative="1" as="geometry">
            <mxPoint x="240" y="690" as="targetPoint" />
            <Array as="points">
              <mxPoint x="421" y="360" />
              <mxPoint x="421" y="650" />
              <mxPoint x="240" y="650" />
            </Array>
          </mxGeometry>
        </mxCell>
        <mxCell id="DQxKLJ-CM0DmWN-XMftg-9" value="i = 0; i &amp;lt; cols; i++" style="shape=hexagon;perimeter=hexagonPerimeter2;whiteSpace=wrap;html=1;fixedSize=1;size=40;fontSize=14;" vertex="1" parent="1">
          <mxGeometry x="105" y="340" width="270" height="40" as="geometry" />
        </mxCell>
        <mxCell id="DQxKLJ-CM0DmWN-XMftg-15" style="edgeStyle=orthogonalEdgeStyle;rounded=0;orthogonalLoop=1;jettySize=auto;html=1;entryX=0.5;entryY=0;entryDx=0;entryDy=0;fontSize=14;" edge="1" parent="1" source="DQxKLJ-CM0DmWN-XMftg-11" target="DQxKLJ-CM0DmWN-XMftg-14">
          <mxGeometry relative="1" as="geometry" />
        </mxCell>
        <mxCell id="DQxKLJ-CM0DmWN-XMftg-11" value="solution[i] = new int[rows]" style="rounded=0;whiteSpace=wrap;html=1;fontSize=14;" vertex="1" parent="1">
          <mxGeometry x="150" y="400" width="180" height="40" as="geometry" />
        </mxCell>
        <mxCell id="DQxKLJ-CM0DmWN-XMftg-16" style="edgeStyle=orthogonalEdgeStyle;rounded=0;orthogonalLoop=1;jettySize=auto;html=1;fontSize=14;" edge="1" parent="1" source="DQxKLJ-CM0DmWN-XMftg-14" target="DQxKLJ-CM0DmWN-XMftg-17">
          <mxGeometry relative="1" as="geometry">
            <mxPoint x="240" y="530" as="targetPoint" />
          </mxGeometry>
        </mxCell>
        <mxCell id="DQxKLJ-CM0DmWN-XMftg-14" value="j = 0; j &amp;lt; rows; j++" style="shape=hexagon;perimeter=hexagonPerimeter2;whiteSpace=wrap;html=1;fixedSize=1;size=40;fontSize=14;" vertex="1" parent="1">
          <mxGeometry x="105" y="460" width="270" height="40" as="geometry" />
        </mxCell>
        <mxCell id="DQxKLJ-CM0DmWN-XMftg-17" value="solution[i][j] = array[i] + array2[j]" style="rounded=0;whiteSpace=wrap;html=1;fontSize=14;" vertex="1" parent="1">
          <mxGeometry x="127.5" y="520" width="225" height="40" as="geometry" />
        </mxCell>
        <mxCell id="DQxKLJ-CM0DmWN-XMftg-18" value="" style="endArrow=none;html=1;rounded=0;exitX=0.5;exitY=1;exitDx=0;exitDy=0;entryX=0;entryY=0.5;entryDx=0;entryDy=0;fontSize=14;" edge="1" parent="1" source="DQxKLJ-CM0DmWN-XMftg-17" target="DQxKLJ-CM0DmWN-XMftg-14">
          <mxGeometry width="50" height="50" relative="1" as="geometry">
            <mxPoint x="230" y="420" as="sourcePoint" />
            <mxPoint x="280" y="370" as="targetPoint" />
            <Array as="points">
              <mxPoint x="240" y="600" />
              <mxPoint x="80" y="600" />
              <mxPoint x="80" y="480" />
            </Array>
          </mxGeometry>
        </mxCell>
        <mxCell id="8xSQEIMOcmvB-MgzGwHs-1" value="" style="endArrow=none;html=1;rounded=0;exitX=1;exitY=0.5;exitDx=0;exitDy=0;entryX=0;entryY=0.5;entryDx=0;entryDy=0;fontSize=14;" edge="1" parent="1" source="DQxKLJ-CM0DmWN-XMftg-14" target="DQxKLJ-CM0DmWN-XMftg-9">
          <mxGeometry width="50" height="50" relative="1" as="geometry">
            <mxPoint x="230" y="420" as="sourcePoint" />
            <mxPoint x="280" y="370" as="targetPoint" />
            <Array as="points">
              <mxPoint x="400" y="480" />
              <mxPoint x="400" y="630" />
              <mxPoint x="60" y="630" />
              <mxPoint x="60" y="360" />
            </Array>
          </mxGeometry>
        </mxCell>
        <mxCell id="8xSQEIMOcmvB-MgzGwHs-4" style="edgeStyle=orthogonalEdgeStyle;rounded=0;orthogonalLoop=1;jettySize=auto;html=1;entryX=0.5;entryY=0;entryDx=0;entryDy=0;fontSize=14;" edge="1" parent="1" source="8xSQEIMOcmvB-MgzGwHs-3" target="8xSQEIMOcmvB-MgzGwHs-6">
          <mxGeometry relative="1" as="geometry">
            <mxPoint x="240" y="790" as="targetPoint" />
          </mxGeometry>
        </mxCell>
        <mxCell id="8xSQEIMOcmvB-MgzGwHs-3" value="System.Console.WriteLine(&quot;\nКвадратна матриця, сформована із сум елементів i-тої matrix1 та j-тої matrix2: &quot;);" style="rounded=0;whiteSpace=wrap;html=1;fontSize=14;" vertex="1" parent="1">
          <mxGeometry x="-95" y="680" width="670" height="60" as="geometry" />
        </mxCell>
        <mxCell id="8xSQEIMOcmvB-MgzGwHs-7" style="edgeStyle=orthogonalEdgeStyle;rounded=0;orthogonalLoop=1;jettySize=auto;html=1;fontSize=14;" edge="1" parent="1" source="8xSQEIMOcmvB-MgzGwHs-6" target="8xSQEIMOcmvB-MgzGwHs-8">
          <mxGeometry relative="1" as="geometry">
            <mxPoint x="240" y="850" as="targetPoint" />
          </mxGeometry>
        </mxCell>
        <mxCell id="8xSQEIMOcmvB-MgzGwHs-6" value="Lib.print_matrix(solution);" style="rounded=0;whiteSpace=wrap;html=1;fontSize=14;" vertex="1" parent="1">
          <mxGeometry x="150" y="780" width="180" height="40" as="geometry" />
        </mxCell>
        <mxCell id="8xSQEIMOcmvB-MgzGwHs-9" style="edgeStyle=orthogonalEdgeStyle;rounded=0;orthogonalLoop=1;jettySize=auto;html=1;entryX=0.5;entryY=0;entryDx=0;entryDy=0;fontSize=14;" edge="1" parent="1" source="8xSQEIMOcmvB-MgzGwHs-8" target="8xSQEIMOcmvB-MgzGwHs-10">
          <mxGeometry relative="1" as="geometry">
            <mxPoint x="240" y="930" as="targetPoint" />
          </mxGeometry>
        </mxCell>
        <mxCell id="8xSQEIMOcmvB-MgzGwHs-8" value="int[][] transposedSolution = new int[rows][];" style="rounded=0;whiteSpace=wrap;html=1;fontSize=14;" vertex="1" parent="1">
          <mxGeometry x="100" y="850" width="280" height="50" as="geometry" />
        </mxCell>
        <mxCell id="8xSQEIMOcmvB-MgzGwHs-12" style="edgeStyle=orthogonalEdgeStyle;rounded=0;orthogonalLoop=1;jettySize=auto;html=1;fontSize=14;" edge="1" parent="1" source="8xSQEIMOcmvB-MgzGwHs-10" target="8xSQEIMOcmvB-MgzGwHs-13">
          <mxGeometry relative="1" as="geometry">
            <mxPoint x="240" y="1000" as="targetPoint" />
          </mxGeometry>
        </mxCell>
        <mxCell id="8xSQEIMOcmvB-MgzGwHs-21" style="edgeStyle=orthogonalEdgeStyle;rounded=0;orthogonalLoop=1;jettySize=auto;html=1;fontSize=14;" edge="1" parent="1" source="8xSQEIMOcmvB-MgzGwHs-10" target="8xSQEIMOcmvB-MgzGwHs-22">
          <mxGeometry relative="1" as="geometry">
            <mxPoint x="240" y="1290" as="targetPoint" />
            <Array as="points">
              <mxPoint x="411" y="950" />
              <mxPoint x="411" y="1250" />
              <mxPoint x="240" y="1250" />
            </Array>
          </mxGeometry>
        </mxCell>
        <mxCell id="8xSQEIMOcmvB-MgzGwHs-10" value="i = 0; i &amp;lt; cols; i++" style="shape=hexagon;perimeter=hexagonPerimeter2;whiteSpace=wrap;html=1;fixedSize=1;size=40;fontSize=14;" vertex="1" parent="1">
          <mxGeometry x="105" y="930" width="270" height="40" as="geometry" />
        </mxCell>
        <mxCell id="8xSQEIMOcmvB-MgzGwHs-14" style="edgeStyle=orthogonalEdgeStyle;rounded=0;orthogonalLoop=1;jettySize=auto;html=1;fontSize=14;" edge="1" parent="1" source="8xSQEIMOcmvB-MgzGwHs-13" target="8xSQEIMOcmvB-MgzGwHs-15">
          <mxGeometry relative="1" as="geometry">
            <mxPoint x="240" y="1050" as="targetPoint" />
          </mxGeometry>
        </mxCell>
        <mxCell id="8xSQEIMOcmvB-MgzGwHs-13" value="transposedSolution[i] = new int[cols];" style="rounded=0;whiteSpace=wrap;html=1;fontSize=14;" vertex="1" parent="1">
          <mxGeometry x="132.5" y="1000" width="215" height="40" as="geometry" />
        </mxCell>
        <mxCell id="8xSQEIMOcmvB-MgzGwHs-16" style="edgeStyle=orthogonalEdgeStyle;rounded=0;orthogonalLoop=1;jettySize=auto;html=1;fontSize=14;" edge="1" parent="1" source="8xSQEIMOcmvB-MgzGwHs-15" target="8xSQEIMOcmvB-MgzGwHs-17">
          <mxGeometry relative="1" as="geometry">
            <mxPoint x="240" y="1140.0000000000002" as="targetPoint" />
          </mxGeometry>
        </mxCell>
        <mxCell id="8xSQEIMOcmvB-MgzGwHs-15" value="j = 0; j &amp;lt; cols; j++" style="shape=hexagon;perimeter=hexagonPerimeter2;whiteSpace=wrap;html=1;fixedSize=1;fontSize=14;" vertex="1" parent="1">
          <mxGeometry x="125" y="1070" width="230" height="40" as="geometry" />
        </mxCell>
        <mxCell id="8xSQEIMOcmvB-MgzGwHs-17" value="transposedSolution[i][j] = solution[j][i];" style="rounded=0;whiteSpace=wrap;html=1;fontSize=14;" vertex="1" parent="1">
          <mxGeometry x="110" y="1140" width="260" height="40" as="geometry" />
        </mxCell>
        <mxCell id="8xSQEIMOcmvB-MgzGwHs-19" value="" style="endArrow=none;html=1;rounded=0;exitX=0.5;exitY=1;exitDx=0;exitDy=0;entryX=0;entryY=0.5;entryDx=0;entryDy=0;fontSize=14;" edge="1" parent="1" source="8xSQEIMOcmvB-MgzGwHs-17" target="8xSQEIMOcmvB-MgzGwHs-15">
          <mxGeometry width="50" height="50" relative="1" as="geometry">
            <mxPoint x="220" y="1150" as="sourcePoint" />
            <mxPoint x="270" y="1100" as="targetPoint" />
            <Array as="points">
              <mxPoint x="240" y="1210" />
              <mxPoint x="80" y="1210" />
              <mxPoint x="80" y="1090" />
            </Array>
          </mxGeometry>
        </mxCell>
        <mxCell id="8xSQEIMOcmvB-MgzGwHs-20" value="" style="endArrow=none;html=1;rounded=0;entryX=1;entryY=0.5;entryDx=0;entryDy=0;exitX=0;exitY=0.5;exitDx=0;exitDy=0;fontSize=14;" edge="1" parent="1" source="8xSQEIMOcmvB-MgzGwHs-10" target="8xSQEIMOcmvB-MgzGwHs-15">
          <mxGeometry width="50" height="50" relative="1" as="geometry">
            <mxPoint x="280" y="1150" as="sourcePoint" />
            <mxPoint x="330" y="1100" as="targetPoint" />
            <Array as="points">
              <mxPoint x="60" y="950" />
              <mxPoint x="60" y="1230" />
              <mxPoint x="390" y="1230" />
              <mxPoint x="390" y="1090" />
            </Array>
          </mxGeometry>
        </mxCell>
        <mxCell id="8xSQEIMOcmvB-MgzGwHs-23" style="edgeStyle=orthogonalEdgeStyle;rounded=0;orthogonalLoop=1;jettySize=auto;html=1;fontSize=14;" edge="1" parent="1" source="8xSQEIMOcmvB-MgzGwHs-22" target="8xSQEIMOcmvB-MgzGwHs-24">
          <mxGeometry relative="1" as="geometry">
            <mxPoint x="240" y="1350.0000000000002" as="targetPoint" />
          </mxGeometry>
        </mxCell>
        <mxCell id="8xSQEIMOcmvB-MgzGwHs-22" value="&amp;nbsp;System.Console.WriteLine(&quot;\nТранспонована матриця: &quot;);" style="rounded=0;whiteSpace=wrap;html=1;fontSize=14;" vertex="1" parent="1">
          <mxGeometry x="55" y="1280" width="370" height="40" as="geometry" />
        </mxCell>
        <mxCell id="8xSQEIMOcmvB-MgzGwHs-25" style="edgeStyle=orthogonalEdgeStyle;rounded=0;orthogonalLoop=1;jettySize=auto;html=1;fontSize=14;" edge="1" parent="1" source="8xSQEIMOcmvB-MgzGwHs-24" target="8xSQEIMOcmvB-MgzGwHs-26">
          <mxGeometry relative="1" as="geometry">
            <mxPoint x="240" y="1420" as="targetPoint" />
          </mxGeometry>
        </mxCell>
        <mxCell id="8xSQEIMOcmvB-MgzGwHs-24" value="&amp;nbsp;Lib.print_matrix(transposedSolution);" style="rounded=0;whiteSpace=wrap;html=1;fontSize=14;" vertex="1" parent="1">
          <mxGeometry x="115" y="1350" width="250" height="40" as="geometry" />
        </mxCell>
        <mxCell id="8xSQEIMOcmvB-MgzGwHs-27" style="edgeStyle=orthogonalEdgeStyle;rounded=0;orthogonalLoop=1;jettySize=auto;html=1;fontSize=14;" edge="1" parent="1" source="8xSQEIMOcmvB-MgzGwHs-26" target="8xSQEIMOcmvB-MgzGwHs-28">
          <mxGeometry relative="1" as="geometry">
            <mxPoint x="240" y="1500" as="targetPoint" />
          </mxGeometry>
        </mxCell>
        <mxCell id="8xSQEIMOcmvB-MgzGwHs-30" style="edgeStyle=orthogonalEdgeStyle;rounded=0;orthogonalLoop=1;jettySize=auto;html=1;fontSize=14;" edge="1" parent="1" source="8xSQEIMOcmvB-MgzGwHs-26" target="8xSQEIMOcmvB-MgzGwHs-31">
          <mxGeometry relative="1" as="geometry">
            <mxPoint x="240" y="1670" as="targetPoint" />
            <Array as="points">
              <mxPoint x="401" y="1445" />
              <mxPoint x="401" y="1600" />
              <mxPoint x="240" y="1600" />
            </Array>
          </mxGeometry>
        </mxCell>
        <mxCell id="8xSQEIMOcmvB-MgzGwHs-26" value="i = 0; i &amp;lt; rows; i++" style="shape=hexagon;perimeter=hexagonPerimeter2;whiteSpace=wrap;html=1;fixedSize=1;fontSize=14;" vertex="1" parent="1">
          <mxGeometry x="150" y="1420" width="180" height="50" as="geometry" />
        </mxCell>
        <mxCell id="8xSQEIMOcmvB-MgzGwHs-28" value="Array.Reverse(transposedSolution[i]);" style="rounded=0;whiteSpace=wrap;html=1;fontSize=14;" vertex="1" parent="1">
          <mxGeometry x="105" y="1490" width="270" height="50" as="geometry" />
        </mxCell>
        <mxCell id="8xSQEIMOcmvB-MgzGwHs-29" value="" style="endArrow=none;html=1;rounded=0;exitX=0.5;exitY=1;exitDx=0;exitDy=0;entryX=0;entryY=0.5;entryDx=0;entryDy=0;fontSize=14;" edge="1" parent="1" source="8xSQEIMOcmvB-MgzGwHs-28" target="8xSQEIMOcmvB-MgzGwHs-26">
          <mxGeometry width="50" height="50" relative="1" as="geometry">
            <mxPoint x="240" y="1510" as="sourcePoint" />
            <mxPoint x="290" y="1460" as="targetPoint" />
            <Array as="points">
              <mxPoint x="240" y="1580" />
              <mxPoint x="80" y="1580" />
              <mxPoint x="80" y="1445" />
            </Array>
          </mxGeometry>
        </mxCell>
        <mxCell id="8xSQEIMOcmvB-MgzGwHs-32" style="edgeStyle=orthogonalEdgeStyle;rounded=0;orthogonalLoop=1;jettySize=auto;html=1;fontSize=14;" edge="1" parent="1" source="8xSQEIMOcmvB-MgzGwHs-31" target="8xSQEIMOcmvB-MgzGwHs-33">
          <mxGeometry relative="1" as="geometry">
            <mxPoint x="240" y="1700" as="targetPoint" />
          </mxGeometry>
        </mxCell>
        <mxCell id="8xSQEIMOcmvB-MgzGwHs-31" value="int[] temp = transposedSolution[0];" style="rounded=0;whiteSpace=wrap;html=1;fontSize=14;" vertex="1" parent="1">
          <mxGeometry x="120" y="1640" width="240" height="40" as="geometry" />
        </mxCell>
        <mxCell id="8xSQEIMOcmvB-MgzGwHs-35" style="edgeStyle=orthogonalEdgeStyle;rounded=0;orthogonalLoop=1;jettySize=auto;html=1;fontSize=14;" edge="1" parent="1" source="8xSQEIMOcmvB-MgzGwHs-33" target="8xSQEIMOcmvB-MgzGwHs-36">
          <mxGeometry relative="1" as="geometry">
            <mxPoint x="240" y="1780" as="targetPoint" />
          </mxGeometry>
        </mxCell>
        <mxCell id="8xSQEIMOcmvB-MgzGwHs-33" value="&amp;nbsp;transposedSolution[0] = transposedSolution[rows - 1];" style="rounded=0;whiteSpace=wrap;html=1;fontSize=14;" vertex="1" parent="1">
          <mxGeometry x="55" y="1710" width="370" height="40" as="geometry" />
        </mxCell>
        <mxCell id="8xSQEIMOcmvB-MgzGwHs-40" style="edgeStyle=orthogonalEdgeStyle;rounded=0;orthogonalLoop=1;jettySize=auto;html=1;fontSize=14;" edge="1" parent="1" source="8xSQEIMOcmvB-MgzGwHs-36" target="8xSQEIMOcmvB-MgzGwHs-41">
          <mxGeometry relative="1" as="geometry">
            <mxPoint x="240" y="1840" as="targetPoint" />
          </mxGeometry>
        </mxCell>
        <mxCell id="8xSQEIMOcmvB-MgzGwHs-36" value="transposedSolution[rows - 1] = temp;" style="rounded=0;whiteSpace=wrap;html=1;fontSize=14;" vertex="1" parent="1">
          <mxGeometry x="110" y="1770" width="260" height="40" as="geometry" />
        </mxCell>
        <mxCell id="8xSQEIMOcmvB-MgzGwHs-43" style="edgeStyle=orthogonalEdgeStyle;rounded=0;orthogonalLoop=1;jettySize=auto;html=1;fontSize=14;" edge="1" parent="1" source="8xSQEIMOcmvB-MgzGwHs-41" target="8xSQEIMOcmvB-MgzGwHs-44">
          <mxGeometry relative="1" as="geometry">
            <mxPoint x="240" y="1920" as="targetPoint" />
          </mxGeometry>
        </mxCell>
        <mxCell id="8xSQEIMOcmvB-MgzGwHs-41" value="System.Console.WriteLine(&quot;\nКінцевий результат: &quot;);" style="rounded=0;whiteSpace=wrap;html=1;fontSize=14;" vertex="1" parent="1">
          <mxGeometry x="63.75" y="1840" width="352.5" height="50" as="geometry" />
        </mxCell>
        <mxCell id="8xSQEIMOcmvB-MgzGwHs-46" style="edgeStyle=orthogonalEdgeStyle;rounded=0;orthogonalLoop=1;jettySize=auto;html=1;entryX=0.5;entryY=0;entryDx=0;entryDy=0;fontSize=14;" edge="1" parent="1" source="8xSQEIMOcmvB-MgzGwHs-44" target="8xSQEIMOcmvB-MgzGwHs-45">
          <mxGeometry relative="1" as="geometry" />
        </mxCell>
        <mxCell id="8xSQEIMOcmvB-MgzGwHs-44" value="Lib.print_matrix(transposedSolution);" style="rounded=0;whiteSpace=wrap;html=1;fontSize=14;" vertex="1" parent="1">
          <mxGeometry x="115" y="1920" width="250" height="50" as="geometry" />
        </mxCell>
        <mxCell id="8xSQEIMOcmvB-MgzGwHs-47" style="edgeStyle=orthogonalEdgeStyle;rounded=0;orthogonalLoop=1;jettySize=auto;html=1;fontSize=14;" edge="1" parent="1" source="8xSQEIMOcmvB-MgzGwHs-45" target="8xSQEIMOcmvB-MgzGwHs-48">
          <mxGeometry relative="1" as="geometry">
            <mxPoint x="240" y="2070" as="targetPoint" />
          </mxGeometry>
        </mxCell>
        <mxCell id="8xSQEIMOcmvB-MgzGwHs-45" value="&amp;nbsp;return transposedSolution;" style="rounded=0;whiteSpace=wrap;html=1;fontSize=14;" vertex="1" parent="1">
          <mxGeometry x="150" y="2000" width="180" height="40" as="geometry" />
        </mxCell>
        <mxCell id="8xSQEIMOcmvB-MgzGwHs-48" value="end" style="rounded=1;whiteSpace=wrap;html=1;arcSize=50;fontSize=14;" vertex="1" parent="1">
          <mxGeometry x="180" y="2070" width="120" height="60" as="geometry" />
        </mxCell>
      </root>
    </mxGraphModel>
  </diagram>
</mxfile>
